<svg xmlns="http://www.w3.org/2000/svg" viewBox="0 0 128 128">
  <path fill="#F5C542" d="M48 8c-13.2 0-24 10.8-24 24v16c0 6.6-5.4 12-12 12v8c6.6 0 12 5.4 12 12v16c0 13.2 10.8 24 24 24h4V108h-4c-4.4 0-8-3.6-8-8V80c0-7.7-4-14.4-10-18.2V58c6-3.7 10-10.3 10-18V24c0-4.4 3.6-8 8-8h4V8h-4z"/>
  <path fill="#F5C542" d="M80 8c13.2 0 24 10.8 24 24v16c0 6.6 5.4 12 12 12v8c-6.6 0-12 5.4-12 12v16c0 13.2-10.8 24-24 24h-4V108h4c4.4 0 8-3.6 8-8V80c0-7.7 4-14.4 10-18.2V58c-6-3.7-10-10.3-10-18V24c0-4.4-3.6-8-8-8h-4V8h4z"/>
</svg>
