<svg xmlns="http://www.w3.org/2000/svg" viewBox="0 0 128 128">
  <path fill="#DEA584" d="M63.998 7.434a3.41 3.41 0 01-1.896 0L59.47 6.56l-1.952 1.246-.616-.222a3.41 3.41 0 01-1.64-.948l-1.615-1.703-2.216.571-.712-.43a3.41 3.41 0 01-1.26-1.42l-1.138-2.084-2.36-.116-.784-.618a3.41 3.41 0 01-.794-1.798l-.586-2.33-2.368-.803-.832-.778a3.41 3.41 0 01-.286-1.96l.014-2.4-2.236-1.47-.85-.908a3.41 3.41 0 01.241-1.96l.618-2.32-1.97-2.076-.84-1.002a3.41 3.41 0 01.756-1.798l1.178-2.098-1.592-2.583-.798-1.058a3.41 3.41 0 011.225-1.494l1.654-1.754-1.122-2.952-.726-1.07a3.41 3.41 0 011.618-1.072l2.02-1.312-.584-3.158-.622-1.038a3.41 3.41 0 011.912-.566l2.262-.8-.012-3.186-.492-.964a3.41 3.41 0 012.088-.014l2.374-.256.562-3.03-.338-.846a3.41 3.41 0 012.134.55l2.348.3 1.106-2.7-.168-.69a3.41 3.41 0 012.044 1.09l2.188.84 1.592-2.212.012-.502a3.41 3.41 0 011.82 1.562l1.904 1.332 2.004-1.592.192-.296a3.41 3.41 0 011.472 1.932l1.51 1.748 2.318-.878.362-.082a3.41 3.41 0 011.024 2.17l1.022 2.068 2.518-.104.516.132a3.41 3.41 0 01.506 2.264l.466 2.276 2.594.672.644.338a3.41 3.41 0 01-.042 2.2l-.118 2.362 2.534 1.416.74.528a3.41 3.41 0 01-.584 2.002l-.692 2.318 2.342 2.088.798.692a3.41 3.41 0 01-1.082 1.676l-1.218 2.148 2.024 2.656.818.824a3.41 3.41 0 01-1.5 1.252l-1.666 1.87 1.598 3.088.796.918a3.41 3.41 0 01-1.82.752l-2.012 1.504 1.082 3.358.734.972a3.41 3.41 0 01-2.022.21l-2.236 1.072.512 3.446.636.986a3.41 3.41 0 01-2.098-.342l-2.332.598-.074 3.34.506.956a3.41 3.41 0 01-2.044-.872l-2.294.106-.65 3.046.352.884a3.41 3.41 0 01-1.866-1.34l-2.126-.38-1.182 2.576.182.77a3.41 3.41 0 01-1.578-1.712l-1.844-.836-1.64 1.96.006.618a3.41 3.41 0 01-1.2-1.96l-1.462-1.232-2.002 1.236-.168.436"/>
  <circle cx="64" cy="64" r="43" fill="#DEA584"/>
  <path fill="#000" d="M64 24c-22.1 0-40 17.9-40 40s17.9 40 40 40 40-17.9 40-40-17.9-40-40-40zm0 6c18.8 0 34 15.2 34 34S82.8 98 64 98 30 82.8 30 64s15.2-34 34-34z"/>
  <path fill="#000" d="M46 58a6 6 0 110-12 6 6 0 010 12zm36 0a6 6 0 110-12 6 6 0 010 12z"/>
  <path fill="#000" d="M44 72h40v6H44z"/>
  <path fill="#000" d="M50 72v10h6V72zm16 0v10h6V72zm16 0v10h6V72z"/>
</svg>
